<?xml version="1.0" encoding="utf-8"?>
<!-- Generator: Adobe Illustrator 26.2.1, SVG Export Plug-In . SVG Version: 6.00 Build 0)  -->
<svg version="1.1" id="a" xmlns="http://www.w3.org/2000/svg" xmlns:xlink="http://www.w3.org/1999/xlink" x="0px" y="0px"
	 viewBox="0 0 370 760" style="enable-background:new 0 0 370 760;" xml:space="preserve">
<style type="text/css">
	.st0{fill:#FFFFFF;}
	.st1{fill:#4AAEE7;}
	.st2{fill:#F7F7F7;}
	.st3{fill:#F2F2F2;}
	.st4{fill:#0E4595;}
	.st5{fill:#F2AE14;}
	.st6{fill:#231F20;}
	.st7{fill:#FF5F00;}
	.st8{fill:#EB001B;}
	.st9{fill:#F79E1B;}
	.st10{fill:#3FAE2A;}
	.st11{fill:#C2C2C2;}
	.st12{fill:#312782;}
	.st13{fill:#253E8B;}
	.st14{fill:#00AEEF;}
	.st15{fill:#2656A0;}
	.st16{fill:#006FD7;}
	.st17{fill:none;}
	.st18{font-family:'FuturaStd-Bold';}
	.st19{font-size:34px;}
	.st20{letter-spacing:2;}
	.st21{font-size:72px;}
	.st22{letter-spacing:5;}
</style>
<path class="st0" d="M24.3,0h321.4C359.1,0,370,10.9,370,24.3v711.4c0,13.4-10.9,24.3-24.3,24.3H24.3C10.9,760,0,749.1,0,735.7V24.3
	C0,10.9,10.9,0,24.3,0z"/>
<path class="st1" d="M370,305.1c-40.5,13.7-98.8,28.4-169.8,30.3C114.1,337.6,44.5,320.1,0,305.1V24.3C0,10.9,10.9,0,24.3,0h321.4
	C359.1,0,370,10.9,370,24.3V305.1z"/>
<g>
	<path class="st2" d="M185,85.8c-29.4,0-53.2,23.8-53.2,53.2c0,17.2,8.1,32.4,20.7,42.1c0.3,7.9,0.5,15.9,0.8,23.9
		c5.8-4.9,11.7-9.8,17.5-14.7c4.5,1.2,9.3,1.9,14.2,1.9c29.4,0,53.2-23.8,53.2-53.2S214.4,85.8,185,85.8L185,85.8z"/>
</g>
<g>
	<g>
		<g>
			<path class="st3" d="M66.9,371.8h95.8c5.3,0,9.6,4.3,9.6,9.6v50.8c0,5.3-4.3,9.6-9.6,9.6H66.9c-5.3,0-9.6-4.3-9.6-9.6v-50.8
				C57.3,376.1,61.6,371.8,66.9,371.8z"/>
			<g>
				<path class="st4" d="M100.8,421l4.8-28.1h7.7l-4.8,28.1H100.8z M136.2,393.4c-1.5-0.6-3.9-1.2-6.9-1.2c-7.6,0-12.9,3.8-13,9.3
					c0,4,3.8,6.3,6.7,7.6c3,1.4,4,2.3,4,3.5c0,1.9-2.4,2.8-4.6,2.8c-3.1,0-4.7-0.4-7.2-1.5l-1-0.5l-1.1,6.3c1.8,0.8,5.1,1.5,8.6,1.5
					c8.1,0,13.3-3.8,13.4-9.6c0-3.2-2-5.6-6.4-7.6c-2.7-1.3-4.3-2.2-4.3-3.5c0-1.2,1.4-2.4,4.4-2.4c2.5,0,4.3,0.5,5.7,1.1l0.7,0.3
					L136.2,393.4 M156,392.8h-6c-1.8,0-3.2,0.5-4,2.3l-11.4,25.8h8.1c0,0,1.3-3.5,1.6-4.2c0.9,0,8.7,0,9.8,0c0.2,1,0.9,4.2,0.9,4.2
					h7.1L156,392.8L156,392.8L156,392.8z M146.6,411c0.6-1.6,3.1-7.9,3.1-7.9c-0.1,0.1,0.6-1.6,1-2.7l0.5,2.4c0,0,1.5,6.7,1.8,8.1
					h-6.4V411z M94.3,392.8L86.8,412l-0.8-3.9c-1.4-4.5-5.8-9.4-10.6-11.8l6.9,24.6h8.1l12.1-28.1L94.3,392.8"/>
				<path class="st5" d="M79.8,392.8H67.4l-0.1,0.6c9.6,2.3,16,8,18.6,14.7l-2.7-12.9C82.8,393.4,81.5,392.9,79.8,392.8"/>
			</g>
			<g>
				<path class="st3" d="M206.9,371.8h95.8c5.3,0,9.6,4.3,9.6,9.6v50.8c0,5.3-4.3,9.6-9.6,9.6h-95.8c-5.3,0-9.6-4.3-9.6-9.6v-50.8
					C197.3,376.1,201.6,371.8,206.9,371.8z"/>
				<g>
					<path id="b" class="st6" d="M234.5,431.3V428c0.1-1.1-0.7-2-1.8-2.1c-0.1,0-0.2,0-0.2,0c-0.7,0-1.4,0.3-1.8,0.9
						c-0.4-0.6-1-1-1.7-0.9c-0.6,0-1.2,0.3-1.5,0.8v-0.6h-1.1v5.2h1.1v-2.9c-0.1-0.7,0.4-1.3,1.1-1.4c0.1,0,0.1,0,0.2,0
						c0.8,0,1.1,0.5,1.1,1.4v2.9h1.1v-2.9c-0.1-0.7,0.4-1.3,1.1-1.4c0.1,0,0.1,0,0.2,0c0.8,0,1.1,0.5,1.1,1.4v2.9H234.5L234.5,431.3
						z M251.5,426.1h-1.9v-1.6h-1.1v1.6h-1v1h1.1v2.4c0,1.2,0.5,1.9,1.8,1.9c0.5,0,1-0.1,1.4-0.4l-0.3-1c-0.3,0.2-0.6,0.3-1,0.3
						c-0.6,0-0.8-0.4-0.8-0.9V427h1.9L251.5,426.1L251.5,426.1z M261.2,426c-0.6,0-1.1,0.3-1.4,0.8v-0.6h-1.1v5.2h1.1v-2.9
						c0-0.9,0.4-1.4,1.1-1.4c0.2,0,0.5,0,0.7,0.1l0.4-1.1C261.7,426,261.5,425.9,261.2,426L261.2,426L261.2,426z M246.5,426.5
						c-0.6-0.4-1.4-0.6-2.1-0.5c-1.3,0-2.2,0.6-2.2,1.7c0,0.9,0.6,1.4,1.8,1.5l0.6,0.1c0.6,0.1,0.9,0.2,0.9,0.5
						c0,0.4-0.4,0.6-1.2,0.6c-0.6,0-1.2-0.2-1.7-0.5l-0.6,0.9c0.7,0.5,1.5,0.7,2.3,0.7c1.5,0,2.4-0.7,2.4-1.7s-0.7-1.4-1.8-1.6
						l-0.6-0.1c-0.5-0.1-0.9-0.2-0.9-0.5s0.4-0.6,1-0.6s1.1,0.2,1.6,0.5L246.5,426.5L246.5,426.5z M277,426c-0.6,0-1.1,0.3-1.4,0.8
						v-0.6h-1.1v5.2h1.1v-2.9c0-0.9,0.4-1.4,1.1-1.4c0.2,0,0.5,0,0.7,0.1l0.4-1.1C277.5,426,277.3,425.9,277,426L277,426L277,426z
						 M262.3,428.7c0,1.5,1.1,2.7,2.5,2.7c0.1,0,0.2,0,0.2,0c0.7,0,1.4-0.2,1.9-0.6l-0.5-0.9c-0.4,0.3-0.9,0.5-1.4,0.5
						c-0.9-0.1-1.6-0.9-1.5-1.8c0.1-0.8,0.7-1.5,1.5-1.5c0.5,0,1,0.2,1.4,0.5l0.5-0.9c-0.5-0.4-1.2-0.7-1.9-0.6
						C263.5,426,262.3,427.1,262.3,428.7C262.3,428.5,262.3,428.6,262.3,428.7L262.3,428.7L262.3,428.7z M273,428.7v-2.6h-1.1v0.6
						c-0.4-0.5-1-0.8-1.6-0.8c-1.5,0-2.7,1.2-2.7,2.7s1.2,2.7,2.7,2.7c0.6,0,1.2-0.3,1.6-0.8v0.6h1.1V428.7L273,428.7z M268.8,428.7
						c0-0.9,0.8-1.5,1.7-1.5s1.5,0.8,1.5,1.7c0,0.8-0.7,1.5-1.6,1.5s-1.6-0.7-1.6-1.5C268.8,428.8,268.8,428.7,268.8,428.7
						L268.8,428.7z M255,426c-1.5,0-2.7,1.3-2.7,2.8s1.3,2.7,2.8,2.7c0.8,0,1.6-0.2,2.2-0.7l-0.5-0.8c-0.4,0.4-1,0.5-1.5,0.5
						c-0.8,0.1-1.5-0.5-1.6-1.3h3.9v-0.4C257.5,427.1,256.5,426,255,426L255,426L255,426z M255,427c0.7,0,1.3,0.5,1.3,1.3h-2.7
						C253.7,427.5,254.3,426.9,255,427L255,427z M283.6,428.7V424h-1.1v2.7c-0.4-0.5-1-0.8-1.6-0.8c-1.5,0-2.7,1.2-2.7,2.7
						s1.2,2.7,2.7,2.7c0.6,0,1.2-0.3,1.6-0.8v0.6h1.1V428.7z M285.5,430.6c0.1,0,0.1,0,0.2,0s0.1,0.1,0.2,0.1c0,0,0.1,0.1,0.1,0.2
						c0.1,0.1,0.1,0.3,0,0.4c0,0.1-0.1,0.1-0.1,0.2c0,0-0.1,0.1-0.2,0.1s-0.1,0-0.2,0c-0.2,0-0.4-0.1-0.5-0.3
						c-0.1-0.1-0.1-0.3,0-0.4c0-0.1,0.1-0.1,0.1-0.2c0,0,0.1-0.1,0.2-0.1C285.3,430.6,285.4,430.5,285.5,430.6L285.5,430.6
						L285.5,430.6z M285.5,431.5c0,0,0.1,0,0.2,0c0,0,0.1,0,0.1-0.1c0.1-0.1,0.1-0.4,0-0.5l-0.1-0.1c0,0-0.1,0-0.2,0
						c0,0-0.1,0-0.2,0c0,0-0.1,0-0.1,0.1c-0.1,0.1-0.1,0.4,0,0.5l0.1,0.1C285.4,431.5,285.4,431.5,285.5,431.5L285.5,431.5z
						 M285.5,430.8h0.1v0.1v0.1h-0.1l0.2,0.2h-0.1l-0.1-0.2l0,0v0.2h-0.1v-0.5L285.5,430.8L285.5,430.8z M285.4,430.9v0.1h0.1
						c0,0,0,0,0.1,0l0,0l0,0c0,0,0,0-0.1,0L285.4,430.9L285.4,430.9z M279.4,428.7c0-0.9,0.8-1.5,1.7-1.5s1.5,0.8,1.5,1.7
						c0,0.8-0.7,1.5-1.6,1.5s-1.6-0.7-1.6-1.5C279.4,428.8,279.4,428.8,279.4,428.7L279.4,428.7z M240.9,428.7v-2.6h-1.1v0.6
						c-0.4-0.5-1-0.8-1.6-0.8c-1.5,0-2.7,1.2-2.7,2.7s1.2,2.7,2.7,2.7c0.6,0,1.2-0.3,1.6-0.8v0.6h1.1V428.7L240.9,428.7z
						 M236.7,428.7c0.1-0.9,0.8-1.5,1.7-1.5s1.5,0.8,1.5,1.7c-0.1,0.8-0.7,1.5-1.6,1.5c-0.9,0-1.6-0.7-1.6-1.5
						C236.6,428.8,236.6,428.8,236.7,428.7L236.7,428.7L236.7,428.7z"/>
					<g id="c">
						<rect id="d" x="246.1" y="386.2" class="st7" width="17.2" height="31"/>
						<path id="e" class="st8" d="M247.2,401.7c0-6,2.8-11.8,7.5-15.5c-8.6-6.7-20.9-5.2-27.7,3.3c-6.7,8.6-5.2,21,3.3,27.7
							c7.1,5.6,17.2,5.6,24.4,0C250,413.5,247.2,407.7,247.2,401.7z"/>
						<path id="f" class="st9" d="M286.7,401.7c0,10.9-8.8,19.7-19.7,19.7c-4.4,0-8.7-1.5-12.2-4.2c8.6-6.7,10-19.1,3.3-27.7
							c-1-1.2-2.1-2.4-3.3-3.3c8.6-6.7,21-5.2,27.7,3.3C285.2,393,286.7,397.2,286.7,401.7L286.7,401.7L286.7,401.7z"/>
						<path id="g" class="st9" d="M284.8,413.9v-0.6h0.3v-0.1h-0.6v0.1h0.3L284.8,413.9L284.8,413.9z M286.1,413.9v-0.8h-0.2
							l-0.2,0.5l-0.2-0.5h-0.2v0.8h0.1v-0.6l0.2,0.5h0.1l0.2-0.5v0.6H286.1L286.1,413.9z"/>
					</g>
				</g>
			</g>
		</g>
		<g>
			<path class="st3" d="M206.9,468.3h95.8c5.3,0,9.6,4.3,9.6,9.6v50.8c0,5.3-4.3,9.6-9.6,9.6h-95.8c-5.3,0-9.6-4.3-9.6-9.6v-50.8
				C197.3,472.6,201.6,468.3,206.9,468.3z"/>
			<g>
				<path class="st10" d="M231.1,481.6c2.1-0.1,4.2,0.1,6.1,1c2.2,0.9,4,2.6,5.2,4.6c0.1,0.1,0.1,0.2,0.1,0.3
					c-0.1,0.1-0.2,0.1-0.3,0.1c-1.3,0.2-2.5,0.4-3.8,0.6c-0.2,0-0.4,0-0.5-0.1c-1.3-1.2-2.9-1.9-4.6-2c-1.2,0-2.4,0-3.6,0.5
					c-2,0.7-3.7,2.1-4.7,4c-0.8,1.4-1.1,3.1-0.9,4.6c0.2,1.8,0.9,3.5,2.1,4.8c1.2,1.4,2.9,2.3,4.7,2.6c2.3,0.4,4.7-0.2,6.5-1.5
					c0.5-0.4,1-0.8,1.4-1.3c0.5-0.4,1.2-0.6,1.9-0.5c0.4,0.1,0.8,0.3,1.1,0.6c0.5,0.5,0.8,1.3,0.7,2c-0.1,0.6-0.5,1.2-0.9,1.6
					c-1.7,1.7-3.9,2.9-6.3,3.4c-2.4,0.5-5,0.4-7.4-0.5c-2.6-1-4.8-2.8-6.3-5.1c-1.1-1.7-1.8-3.7-2-5.7c-0.2-2.1,0.1-4.2,0.9-6.2
					c0.7-1.9,1.9-3.6,3.4-4.9C225.7,482.9,228.4,481.8,231.1,481.6L231.1,481.6z"/>
				<path class="st10" d="M263.5,483.6c0.5-0.5,1.1-0.9,1.8-1c0.9-0.2,1.9,0.1,2.7,0.7c0.9,0.6,1.4,1.7,1.4,2.8c0,6.7,0,13.4,0,20.1
					c0,0.1,0,0.4-0.2,0.4c-1.1,0.2-2.3,0.3-3.4,0.5c-0.3,0-0.5,0.1-0.8,0.1c-0.1,0-0.2-0.2-0.2-0.3c0-5.7,0-11.4,0-17.2
					c-2,4.2-4.1,8.3-6.1,12.5c-0.5,1-0.9,1.9-1.4,2.9c0,0.1-0.1,0.2-0.1,0.2c-0.1,0-0.1-0.1-0.2-0.1c-2.6-4.4-5.2-8.7-7.8-13
					c0,4.8,0,9.6,0,14.3c0,0.3,0,0.6,0,0.9c-0.1,0.7-0.7,1.4-1.4,1.6c-0.7,0.3-1.5,0.2-2.1-0.2c-0.6-0.4-1-1.1-1-1.9
					c0-6.4,0-12.9,0-19.3c0-0.2,0.1-0.3,0.3-0.3c1.9-0.3,3.9-0.5,5.9-0.8c0.2,0,0.3,0.1,0.3,0.2c1.8,3.1,3.6,6.2,5.4,9.3
					c0.1,0.2,0.2,0.4,0.4,0.5c0.1-0.2,0.2-0.4,0.3-0.5c1.5-3.3,3.1-6.6,4.6-9.9C262.3,485.2,262.8,484.3,263.5,483.6L263.5,483.6z"
					/>
				<path class="st10" d="M271.6,483.9c0-0.2,0.1-0.4,0.3-0.4c2.8,0,5.7,0,8.5,0c0.7,0,1.3,0,2,0.1c1.9,0.3,3.7,1.1,5,2.5
					c0.8,0.8,1.3,1.8,1.7,2.9c0.4,1.1,0.4,2.3,0.3,3.4c-0.1,1-0.4,2-0.9,2.9c-0.5,0.8-1.1,1.5-1.9,2.1c-1.1,0.8-2.4,1.2-3.8,1.4
					c2,2,4,4,6,6c0.4,0.4,0.8,0.7,1,1.2c0.4,0.7,0.4,1.6,0,2.3c-0.4,0.6-1,1-1.7,1.1c-0.5,0-0.9-0.1-1.4-0.3
					c-0.2-0.1-0.3-0.2-0.4-0.3c-1.5-1.6-3.1-3.1-4.6-4.7c-0.8-0.8-1.6-1.6-2.3-2.5c-1.1-1.1-1.5-2.9-0.9-4.4c0.4-0.9,1.1-1.6,2-2
					c0.6-0.3,1.2-0.3,1.8-0.5c0.8-0.3,1.5-0.6,2.1-1.3c0.9-1,0.9-2.7,0.1-3.8c-0.6-0.9-1.6-1.5-2.6-1.7c-0.6-0.1-1.2-0.1-1.8-0.1h-4
					c0,5.8,0,11.7,0,17.5c0,0.2-0.1,0.4-0.3,0.4c-1.2,0.2-2.4,0.4-3.5,0.5c-0.2,0-0.4,0.1-0.6,0c-0.1-0.2-0.1-0.4-0.1-0.6
					C271.5,498.5,271.5,491.2,271.6,483.9L271.6,483.9z"/>
				<path class="st10" d="M254.8,512.7c0.3,0,0.6,0,0.9,0c0.2,0,0.2,0.2,0.2,0.3c0,1.1,0,2.3,0,3.4c0.6-0.2,1.3-0.3,2-0.3
					c0.4,0,0.7,0,1.1,0c0.8,0.1,1.5,0.5,2,1.1c0.3,0.4,0.6,0.8,0.8,1.3c0.1,0.4,0.3,0.8,0.3,1.2c0.1,0.5,0,1,0,1.4
					c0,0.6-0.2,1.1-0.3,1.7c-0.2,0.7-0.6,1.3-1.1,1.8c-0.6,0.6-1.4,0.8-2.2,1c-0.9,0.1-1.8,0-2.6-0.1c-0.6-0.1-1.2-0.2-1.7-0.5
					c-0.1-0.1-0.2-0.2-0.2-0.4c0-3.6,0-7.1,0-10.7C253.8,513.4,254.2,512.8,254.8,512.7L254.8,512.7z M255.8,518.1
					c0,1.9,0,3.7,0,5.6c0.5,0.1,1,0.2,1.5,0.2s1,0,1.4-0.3c0.7-0.4,1-1.2,1.1-1.9c0.1-0.4,0-0.8,0-1.2c0-0.7-0.2-1.4-0.6-2
					c-0.3-0.4-0.8-0.7-1.3-0.8C257.2,517.8,256.5,517.9,255.8,518.1L255.8,518.1z"/>
				<path class="st10" d="M240.9,513.9c0-0.6,0.4-1.2,1-1.2c0.3,0,0.6,0,0.9,0c0.1,0,0.1,0.2,0.1,0.3c0,3.4,0,6.7,0,10.1
					c0,0.3-0.1,0.6,0.1,0.8c0.4,0.3,0.9,0.1,1.4,0.1c0.1,0.4,0.1,0.8,0.2,1.3c-0.1,0.1-0.2,0.1-0.3,0.2c-0.7,0.2-1.3,0.3-2,0.2
					c-0.4,0-0.7-0.2-1-0.4c-0.4-0.5-0.5-1.1-0.4-1.7C240.9,520.3,240.9,517.1,240.9,513.9L240.9,513.9z"/>
				<path class="st10" d="M272.4,512.8c0.3-0.1,0.6-0.1,0.9-0.1c0.1,0,0.3,0,0.4,0.1s0,0.2,0.1,0.2c0,3.3,0,6.7,0,10
					c0,0.3-0.1,0.6,0.1,0.8c0.3,0.2,0.8,0.2,1.1,0.1c0.1,0,0.2,0,0.2,0.1c0.1,0.4,0.1,0.8,0.2,1.2c-0.1,0.1-0.2,0.2-0.3,0.2
					c-0.6,0.2-1.3,0.3-1.9,0.2c-0.4,0-0.7-0.2-1-0.5c-0.4-0.5-0.5-1.1-0.4-1.6c0-3.2,0-6.4,0-9.6C271.7,513.5,272,513,272.4,512.8
					L272.4,512.8z"/>
				<path class="st10" d="M276.9,512.8c0.3-0.1,0.6-0.1,0.9-0.1c0.1,0,0.3,0,0.5,0.1c0,1.4,0,2.8,0,4.2v5.9c0,0.2,0,0.4,0,0.7
					c0,0.1,0,0.3,0.2,0.3c0.4,0.2,0.9,0,1.3,0.1c0.1,0.5,0.1,0.9,0.2,1.4c-0.1,0-0.1,0.1-0.2,0.2c-0.7,0.2-1.4,0.3-2.1,0.2
					c-0.4-0.1-0.9-0.3-1.1-0.7s-0.3-0.9-0.3-1.4c0-3.2,0-6.4,0-9.6C276.2,513.5,276.4,513,276.9,512.8L276.9,512.8z"/>
				<path class="st10" d="M225.1,513.7c0.5-0.3,1.2-0.5,1.8-0.5c1.5,0,3,0,4.5,0c0.2,0,0.4,0,0.6,0c0.2,0,0.2,0.2,0.2,0.4
					c0,0.3,0,0.7,0,1c0,0.2-0.1,0.3-0.1,0.5c-0.1,0-0.3,0.1-0.4,0c-1.5,0-3,0-4.5,0c-0.4,0-0.7,0-1,0.3c-0.2,0.2-0.2,0.5-0.2,0.8
					c0,0.7,0,1.4,0,2.1c1.7,0,3.4,0,5.2,0c0.1,0,0.3,0,0.3,0.2c0.1,0.2,0,0.5,0,0.7c0,0.3,0,0.6-0.1,0.9c-0.2,0.1-0.5,0-0.8,0H226
					c0,1.4,0,2.7,0,4.1c0,0.6-0.5,1.2-1.1,1.2c-0.3,0-0.6,0-0.9,0c-0.1,0-0.2-0.2-0.2-0.3c0-2.7,0-5.3,0-8c0-0.6,0-1.1,0.1-1.7
					C224.1,514.7,224.5,514.1,225.1,513.7L225.1,513.7z"/>
				<path class="st10" d="M265.9,516.2c0.7-0.2,1.5-0.2,2.3,0s1.5,0.5,1.9,1.2c0.6,0.8,0.8,1.7,0.8,2.7c0,0.4-0.1,0.9-0.4,1.2
					c-0.2,0.2-0.6,0.3-0.9,0.3c-1.6,0-3.1,0-4.7,0c0,0.6,0.2,1.2,0.5,1.7c0.2,0.3,0.6,0.5,0.9,0.6c0.7,0.2,1.5,0.2,2.2,0
					c0.3-0.1,0.6-0.3,1-0.3c0.1,0,0.2,0.1,0.2,0.2c0.1,0.3,0.3,0.7,0.5,1c0.1,0.1,0,0.2-0.1,0.3c-0.3,0.2-0.6,0.3-1,0.4
					c-0.7,0.2-1.4,0.3-2.1,0.3c-1,0.1-2.1-0.3-2.9-0.9c-0.6-0.5-1-1.2-1.2-1.9c-0.2-0.8-0.2-1.6-0.2-2.4c0.1-1,0.4-2.1,1-2.9
					C264.2,516.9,265,516.5,265.9,516.2L265.9,516.2z M265.5,518.4c-0.4,0.4-0.7,1-0.7,1.6c1.3,0,2.7,0,4,0c0-0.6-0.1-1.3-0.6-1.8
					c-0.3-0.3-0.8-0.4-1.2-0.4C266.5,517.8,265.9,518,265.5,518.4L265.5,518.4z"/>
				<path class="st10" d="M235.1,516.2c1.1-0.1,2.2-0.1,3.2,0.3c0.8,0.4,1.4,1.2,1.5,2.1c0.1,0.3,0,0.6,0,1c0,1.6,0,3.2-0.1,4.8
					c0,0.2-0.1,0.5-0.3,0.6c-0.4,0.2-0.8,0.3-1.1,0.4c-0.3,0.1-0.6,0.1-0.9,0.1c-0.2,0-0.5,0.1-0.7,0.1c-0.9,0-1.7,0-2.5-0.2
					c-0.7-0.1-1.3-0.4-1.8-1c-0.4-0.4-0.5-1-0.5-1.5c0-0.4,0-0.8,0.1-1.2c0.1-0.3,0.2-0.7,0.5-0.9c0.4-0.4,0.8-0.7,1.3-0.9
					c0.6-0.2,1.3-0.3,1.9-0.3c0.7,0,1.3,0,2,0c0-0.3,0-0.7-0.1-1c-0.1-0.2-0.2-0.4-0.4-0.5c-0.3-0.2-0.7-0.3-1.1-0.3
					c-0.7,0-1.3,0.1-2,0.2c-0.3,0-0.6,0.2-0.9,0.2c-0.1-0.2-0.1-0.4-0.2-0.6c-0.1-0.2-0.1-0.5-0.2-0.7c0-0.1,0-0.2,0.1-0.3
					C233.6,516.3,234.3,516.3,235.1,516.2L235.1,516.2z M235.1,521.3c-0.3,0.1-0.7,0.2-0.9,0.4c-0.3,0.3-0.4,0.7-0.4,1.1
					c0,0.4,0.2,0.8,0.5,1c0.6,0.3,1.3,0.4,1.9,0.3c0.4-0.1,0.8-0.2,1.2-0.3c0-0.9,0-1.7,0-2.6C236.7,521.2,235.9,521.1,235.1,521.3
					L235.1,521.3z"/>
				<path class="st10" d="M246,516.6c0.8-0.3,1.6-0.4,2.5-0.5c1-0.1,2.1,0,3,0.5c0.5,0.3,0.8,0.8,1,1.3c0.2,0.4,0.2,0.8,0.2,1.2
					c0,1.8-0.1,3.6-0.1,5.3c0,0.2-0.1,0.5-0.3,0.5c-0.3,0.2-0.7,0.2-1.1,0.4c-0.3,0.1-0.6,0.1-0.9,0.1c-0.5,0.1-1.1,0.1-1.6,0.1
					c-0.9,0-1.8-0.1-2.6-0.5c-0.6-0.3-1-0.8-1.1-1.5c-0.2-0.7-0.2-1.4,0.1-2.1c0.1-0.2,0.2-0.5,0.4-0.7c0.4-0.4,0.8-0.7,1.3-0.9
					c0.6-0.2,1.2-0.3,1.9-0.3s1.3,0,2,0c0-0.3,0-0.7-0.1-1s-0.4-0.6-0.7-0.7c-0.5-0.2-1-0.2-1.5-0.1c-0.6,0.1-1.2,0.1-1.9,0.3
					c-0.1,0-0.3,0-0.4,0c-0.1-0.4-0.2-0.8-0.4-1.2C245.7,516.9,245.8,516.7,246,516.6L246,516.6z M247.6,521.5
					c-0.4,0.2-0.7,0.7-0.6,1.2c-0.1,0.5,0.2,0.9,0.6,1.1c0.5,0.3,1.2,0.3,1.7,0.2c0.4,0,0.8-0.2,1.2-0.3c0-0.9,0.1-1.7,0.1-2.6
					c-0.5,0-1.1,0-1.6,0C248.5,521.2,248,521.2,247.6,521.5L247.6,521.5z"/>
				<path class="st10" d="M282.2,516.4c0.7-0.1,1.4-0.2,2.1-0.2c1,0,2.1,0.1,2.8,0.8c0.4,0.4,0.7,1,0.8,1.5c0.1,0.4,0,0.9,0,1.3
					c0,1.6,0,3.2-0.1,4.7c0,0.2-0.1,0.4-0.3,0.5c-0.3,0.2-0.7,0.2-1.1,0.4c-0.3,0.1-0.6,0.1-1,0.1c-0.5,0.1-1,0.1-1.5,0.1
					c-0.8,0-1.7-0.1-2.4-0.4c-0.4-0.2-0.8-0.4-1-0.8c-0.3-0.3-0.4-0.8-0.5-1.2c-0.1-0.6,0-1.1,0.2-1.7c0.2-0.5,0.5-0.9,0.9-1.2
					s1-0.5,1.5-0.6c0.4-0.1,0.9-0.1,1.3-0.1c0.6,0,1.2,0,1.8,0c0-0.3,0-0.7-0.1-1c-0.1-0.2-0.2-0.4-0.4-0.5c-0.3-0.2-0.7-0.3-1-0.3
					c-0.6,0-1.3,0.1-1.9,0.2c-0.3,0-0.6,0.2-1,0.2c-0.2-0.3-0.2-0.6-0.3-0.9c0-0.2-0.2-0.4,0-0.6
					C281.5,516.5,281.8,516.4,282.2,516.4L282.2,516.4z M282.5,521.7c-0.3,0.3-0.3,0.7-0.3,1.1c0,0.5,0.3,0.9,0.7,1
					c0.5,0.2,1.1,0.2,1.7,0.2c0.4,0,0.8-0.2,1.2-0.3c0-0.9,0-1.7,0-2.6c-0.6,0-1.3,0-2,0C283.4,521.3,282.8,521.3,282.5,521.7
					L282.5,521.7z"/>
			</g>
		</g>
		<g>
			<path class="st3" d="M66.9,564.8h95.8c5.3,0,9.6,4.3,9.6,9.6v50.8c0,5.3-4.3,9.6-9.6,9.6H66.9c-5.3,0-9.6-4.3-9.6-9.6v-50.8
				C57.3,569.1,61.6,564.8,66.9,564.8z"/>
			<path class="st3" d="M206.9,564.8h95.8c5.3,0,9.6,4.3,9.6,9.6v50.8c0,5.3-4.3,9.6-9.6,9.6h-95.8c-5.3,0-9.6-4.3-9.6-9.6v-50.8
				C197.3,569.1,201.6,564.8,206.9,564.8z"/>
		</g>
		<g>
			<polygon class="st11" points="220.7,578.4 289.1,578.4 289.1,620.9 220.7,620.9 			"/>
			<polygon class="st12" points="224.2,604.4 231.4,593 285.6,593 278,604.4 			"/>
			<polygon class="st0" points="226.4,603.5 232.3,594.2 234.2,594.2 234.2,600.1 238,594.2 239.9,594.2 239.9,603.5 238,603.5 
				238,596.9 234.2,603.5 232.3,603.5 232.3,596.9 228.3,603.5 			"/>
			<path class="st0" d="M240.5,603.5l3.9-9.3h1.4l3.9,9.3h-2l-0.9-2.4h-3.2l-0.9,2.4H240.5L240.5,603.5z M244.2,599.4h1.9l-0.9-2.5
				L244.2,599.4L244.2,599.4L244.2,599.4z"/>
			<path class="st0" d="M253,598.7c0.1,0.6,0.1,1.2,0.2,1.8h3.6c-1.2,2.5-5.7,1.6-5.7-1.5c0-3.2,4.1-4.1,5.5-1.7h2.2
				c-0.5-1.7-1.9-3-4.6-3c-2.9,0-4.9,2-4.9,4.5c0,3,2.4,5,5,5c2.2,0.1,4.9-1.8,4.8-5L253,598.7L253,598.7z"/>
			<polygon class="st0" points="259.8,603.5 261.7,603.5 261.7,597.2 265.5,603.5 267.4,603.5 267.4,594.2 265.5,594.2 265.5,600.8 
				261.7,594.2 259.8,594.2 			"/>
			<path class="st0" d="M271.1,601.1h3.1l1,2.4h2l-3.7-9.3h-1.3l-4.1,9.3h2L271.1,601.1L271.1,601.1z M272.7,596.9
				c0,0.3-1,2.5-1,2.5h1.9L272.7,596.9L272.7,596.9z"/>
			<polygon class="st12" points="240.3,578.4 231.9,592 286.2,592 289.1,587.3 289.1,586.8 286,591.7 232.6,591.7 240.7,578.4 			
				"/>
			<path class="st0" d="M280.7,594.2c0.7,0,1.3,0.6,1.3,1.3s-0.6,1.3-1.3,1.3s-1.3-0.6-1.3-1.3S280,594.2,280.7,594.2L280.7,594.2z
				 M280.7,594.4c0.6,0,1,0.5,1,1s-0.5,1-1,1s-1-0.5-1-1S280.1,594.4,280.7,594.4L280.7,594.4z"/>
			<path class="st0" d="M280.2,596.1v-1.2h0.5c0.1,0,0.2,0,0.2,0c0.1,0,0.1,0.1,0.1,0.1c0,0.1,0,0.1,0,0.2c0,0.1,0,0.2-0.1,0.2
				s-0.1,0.1-0.3,0.1c0,0,0.1,0,0.1,0.1c0,0,0.1,0.1,0.1,0.2l0.2,0.3h-0.2l-0.2-0.3c0-0.1-0.1-0.1-0.1-0.2s-0.1-0.1-0.1-0.1
				s0,0-0.1,0c0,0,0,0-0.1,0H280v0.5L280.2,596.1L280.2,596.1z M280.3,595.4h0.4c0.1,0,0.1,0,0.2,0c0,0,0.1,0,0.1-0.1v-0.1
				c0-0.1,0-0.1-0.1-0.2c0,0-0.1-0.1-0.2-0.1h-0.4V595.4L280.3,595.4L280.3,595.4z"/>
		</g>
	</g>
	<g>
		<path class="st13" d="M150.6,688.8c0-16.8-20.9-30.5-46.7-30.5S57.3,672,57.3,688.8c0,0.4,0,1.6,0,1.8c0,17.8,18.3,32.3,46.7,32.3
			s46.7-14.5,46.7-32.3L150.6,688.8"/>
		<path class="st14" d="M148.9,688.8c0,15.9-20.1,28.7-44.9,28.7s-44.9-12.9-44.9-28.7s20.1-28.7,44.9-28.7S148.9,672.9,148.9,688.8
			"/>
		<path class="st0" d="M89.1,679.7c0,0-0.5,0.5-0.2,0.9c0.7,0.9,2.9,1.4,5.1,0.9c1.3-0.3,3-1.6,4.6-2.9c1.8-1.4,3.5-2.8,5.3-3.4
			c1.9-0.6,3.1-0.3,3.9-0.1c0.9,0.3,1.9,0.8,3.5,2c3.1,2.3,15.4,13.1,17.6,15c1.7-0.8,9.4-4.1,19.7-6.3c-0.9-5.5-4.3-10.6-9.4-14.7
			c-7.1,3-15.8,4.5-24.3,0.4c0,0-4.7-2.2-9.2-2.1c-6.8,0.2-9.7,3.1-12.8,6.2L89.1,679.7"/>
		<path class="st0" d="M128.4,693.3c-0.1-0.1-14.5-12.7-17.8-15.2c-1.9-1.4-2.9-1.8-4-1.9c-0.6-0.1-1.4,0-1.9,0.2
			c-1.5,0.4-3.5,1.7-5.3,3.1c-1.8,1.5-3.5,2.8-5.1,3.2c-2,0.5-4.5-0.1-5.7-0.8c-0.5-0.3-0.8-0.7-0.9-1c-0.4-1,0.3-1.8,0.5-1.9l4-4.3
			c0.5-0.5,0.9-0.9,1.4-1.4c-1.3,0.2-2.5,0.5-3.6,0.8c-1.4,0.4-2.8,0.8-4.2,0.8c-0.6,0-3.7-0.5-4.3-0.7c-3.6-1-6.7-1.9-11.4-4.1
			c-5.6,4.2-9.4,9.5-10.5,15.2c0.8,0.2,2.1,0.6,2.7,0.7c12.8,2.8,16.7,5.8,17.5,6.4c0.8-0.9,1.9-1.4,3.2-1.4c1.4,0,2.7,0.7,3.5,1.8
			c0.7-0.6,1.7-1.1,3-1.1c0.6,0,1.2,0.1,1.8,0.3c1.4,0.5,2.2,1.5,2.6,2.3c0.5-0.2,1.1-0.4,1.8-0.4c0.7,0,1.4,0.2,2.1,0.5
			c2.3,1,2.7,3.3,2.5,5.1c0.2,0,0.3,0,0.5,0c2.8,0,5.1,2.3,5.1,5.1c0,0.9-0.2,1.7-0.6,2.4c0.8,0.4,2.7,1.4,4.4,1.2
			c1.4-0.2,1.9-0.6,2.1-0.9c0.1-0.2,0.3-0.4,0.1-0.5l-3.6-4c0,0-0.6-0.6-0.4-0.8s0.6,0.1,0.8,0.3c1.8,1.5,4.1,3.8,4.1,3.8
			s0.2,0.3,1,0.5c0.7,0.1,2,0,2.8-0.7c0.2-0.2,0.4-0.4,0.6-0.6l0,0c0.9-1.2-0.1-2.4-0.1-2.4l-4.2-4.7c0,0-0.6-0.6-0.4-0.8
			s0.6,0.1,0.8,0.3c1.3,1.1,3.2,3,5,4.8c0.3,0.3,1.9,1.2,4-0.1c1.3-0.8,1.5-1.9,1.5-2.6c-0.1-1-0.9-1.8-0.9-1.8l-5.7-5.8
			c0,0-0.6-0.5-0.4-0.8c0.2-0.2,0.6,0.1,0.8,0.3c1.8,1.5,6.8,6.1,6.8,6.1c0.1,0,1.8,1.3,3.9-0.1c0.8-0.5,1.2-1.2,1.3-2.1
			C129.4,694.1,128.4,693.2,128.4,693.3"/>
		<path class="st0" d="M100.5,700.6c-0.9,0-1.9,0.5-2,0.4c-0.1,0,0.1-0.4,0.1-0.6c0.1-0.2,1.3-3.7-1.6-5c-2.2-0.9-3.5,0.1-4,0.6
			c-0.1,0.1-0.2,0.1-0.2,0c0-0.6-0.3-2.3-2.2-2.9c-2.7-0.8-4.4,1.1-4.9,1.7c-0.2-1.5-1.5-2.7-3.1-2.7c-1.7,0-3.1,1.4-3.1,3.1
			s1.4,3.1,3.1,3.1c0.8,0,1.6-0.3,2.2-0.9c0,0,0,0,0,0.1c-0.1,0.8-0.4,3.6,2.6,4.7c1.2,0.5,2.2,0.1,3-0.5c0.2-0.2,0.3-0.1,0.2,0.1
			c-0.1,0.7,0,2.3,2.2,3.2c1.7,0.7,2.6,0,3.3-0.6c0.3-0.2,0.3-0.2,0.4,0.2c0.1,2.1,1.8,3.8,3.9,3.8c2.2,0,3.9-1.8,3.9-3.9
			S102.7,700.7,100.5,700.6"/>
		<path class="st13" d="M100.5,708.2c-2,0-3.6-1.5-3.7-3.5c0-0.2,0-0.6-0.4-0.6c-0.2,0-0.3,0.1-0.4,0.2c-0.4,0.4-1,0.8-1.8,0.8
			c-0.4,0-0.8-0.1-1.2-0.3c-2.1-0.8-2.1-2.3-2-2.8c0-0.2,0-0.3-0.1-0.4l-0.1-0.1h-0.1c-0.1,0-0.2,0-0.4,0.2
			c-0.6,0.4-1.2,0.6-1.8,0.6c-0.3,0-0.7-0.1-1-0.2c-2.7-1.1-2.5-3.7-2.4-4.4c0-0.2,0-0.3-0.1-0.4l-0.2-0.2l-0.2,0.2
			c-0.5,0.5-1.2,0.8-2,0.8c-1.6,0-2.8-1.3-2.8-2.8c0-1.6,1.3-2.8,2.8-2.8c1.4,0,2.6,1.1,2.8,2.5l0.1,0.8L86,695
			c0.1-0.1,1.2-1.8,3.3-1.8c0.4,0,0.8,0.1,1.2,0.2c1.7,0.5,2,2,2,2.7c0,0.4,0.3,0.4,0.3,0.4c0.1,0,0.2-0.1,0.3-0.2
			c0.3-0.3,1-0.9,2.1-0.9c0.5,0,1,0.1,1.6,0.3c2.7,1.2,1.5,4.6,1.4,4.6c-0.2,0.6-0.2,0.8,0,1h0.1h0.1c0.1,0,0.3,0,0.5-0.1
			c0.4-0.1,0.9-0.3,1.4-0.3l0,0c2,0,3.7,1.7,3.7,3.7C104.2,706.6,102.6,708.2,100.5,708.2L100.5,708.2z M128.9,691.8
			c-4.4-3.9-14.7-12.8-17.4-14.8c-1.6-1.2-2.7-1.8-3.6-2.1c-0.4-0.1-1-0.3-1.8-0.3c-0.7,0-1.5,0.1-2.2,0.4c-1.8,0.6-3.6,2-5.3,3.4
			l-0.1,0.1c-1.6,1.3-3.3,2.6-4.5,2.9c-0.6,0.1-1.1,0.2-1.7,0.2c-1.4,0-2.7-0.4-3.2-1c-0.1-0.1,0-0.3,0.2-0.5l0,0l3.9-4.2
			c3.1-3,5.9-5.9,12.6-6.1c0.1,0,0.2,0,0.3,0c4.1,0,8.3,1.8,8.7,2.1c3.9,1.9,7.9,2.8,11.9,2.8c4.2,0,8.5-1,13.1-3.1
			c-0.5-0.4-1-0.8-1.6-1.2c-4,1.7-7.8,2.6-11.5,2.6c-3.8,0-7.5-0.9-11.1-2.7c-0.2-0.1-4.8-2.2-9.5-2.2c-0.1,0-0.2,0-0.4,0
			c-5.6,0.1-8.7,2.1-10.8,3.8c-2.1,0-3.8,0.5-5.4,1c-1.4,0.4-2.6,0.7-3.8,0.7c-0.5,0-1.4,0-1.4,0c-1.4,0-8.2-1.7-13.7-3.8
			c-0.6,0.4-1.1,0.8-1.6,1.2c5.7,2.3,12.7,4.2,14.8,4.3c0.6,0,1.3,0.1,1.9,0.1c1.4,0,2.9-0.4,4.3-0.8c0.8-0.2,1.7-0.5,2.7-0.7
			c-0.3,0.2-0.5,0.5-0.8,0.8l-4,4.3c-0.3,0.3-1,1.2-0.5,2.2c0.2,0.4,0.5,0.8,1,1.2c0.9,0.6,2.6,1.1,4.2,1.1c0.6,0,1.2-0.1,1.7-0.2
			c1.7-0.4,3.4-1.8,5.2-3.2c1.5-1.2,3.6-2.7,5.2-3.1c0.4-0.1,1-0.2,1.4-0.2c0.1,0,0.3,0,0.4,0c1.1,0.1,2.1,0.5,3.9,1.9
			c3.2,2.4,17.6,15,17.8,15.2c0,0,0.9,0.8,0.9,2.1c0,0.7-0.4,1.4-1.2,1.8c-0.6,0.4-1.2,0.6-1.9,0.6c-1,0-1.6-0.5-1.7-0.5
			s-5-4.6-6.8-6.1c-0.3-0.2-0.6-0.5-0.8-0.5c-0.2,0-0.3,0.1-0.4,0.2c-0.3,0.3,0,0.8,0.4,1.2l5.8,5.8c0,0,0.7,0.7,0.8,1.6
			c0.1,1-0.4,1.8-1.4,2.4c-0.7,0.5-1.4,0.7-2,0.7c-0.9,0-1.5-0.4-1.6-0.5l-0.8-0.8c-1.5-1.5-3.1-3-4.2-4c-0.3-0.2-0.6-0.4-0.9-0.4
			c-0.1,0-0.3,0-0.4,0.2c-0.1,0.1-0.2,0.4,0.1,0.8c0.1,0.2,0.3,0.3,0.3,0.3l4.2,4.7c0,0,0.9,1,0.1,2l-0.2,0.2
			c-0.1,0.1-0.3,0.3-0.4,0.4c-0.7,0.6-1.7,0.7-2.1,0.7c-0.2,0-0.4,0-0.6,0c-0.4-0.1-0.7-0.2-0.8-0.3h-0.1c-0.2-0.2-2.3-2.4-4.1-3.9
			c-0.2-0.2-0.5-0.4-0.8-0.4c-0.2,0-0.3,0.1-0.4,0.2c-0.3,0.4,0.2,1,0.4,1.2l3.6,4c0,0-0.1,0.1-0.1,0.2c-0.1,0.2-0.6,0.6-1.9,0.8
			c-0.2,0-0.3,0-0.5,0c-1.3,0-2.8-0.7-3.5-1c0.3-0.7,0.5-1.5,0.5-2.3c0-3-2.4-5.3-5.3-5.3c-0.1,0-0.1,0-0.2,0c0.1-1.3-0.1-3.9-2.7-5
			c-0.8-0.3-1.5-0.5-2.2-0.5c-0.6,0-1.1,0.1-1.6,0.3c-0.5-1-1.4-1.8-2.6-2.2c-0.7-0.2-1.3-0.3-1.9-0.3c-1.1,0-2.1,0.3-3,1
			c-0.9-1.1-2.2-1.7-3.5-1.7c-1.2,0-2.3,0.5-3.2,1.3c-1.1-0.8-5.5-3.7-17.4-6.3c-0.6-0.1-1.9-0.5-2.7-0.7c-0.1,0.6-0.2,1.3-0.3,1.9
			c0,0,2.2,0.5,2.6,0.6c12.1,2.7,16.1,5.5,16.8,6c-0.2,0.5-0.3,1.1-0.3,1.7c0,2.5,2,4.5,4.5,4.5c0.3,0,0.6,0,0.8-0.1
			c0.4,1.8,1.6,3.2,3.4,4c0.5,0.2,1.1,0.3,1.6,0.3c0.3,0,0.7,0,1-0.1c0.3,0.9,1.1,1.9,2.8,2.6c0.6,0.2,1.2,0.4,1.8,0.4
			c0.5,0,0.9-0.1,1.4-0.2c0.8,2,2.8,3.3,4.9,3.3c1.4,0,2.8-0.6,3.8-1.6c0.9,0.5,2.7,1.3,4.5,1.3c0.2,0,0.5,0,0.7,0
			c1.8-0.2,2.7-1,3.1-1.5c0.1-0.1,0.1-0.2,0.2-0.3c0.4,0.1,0.9,0.2,1.4,0.2c1,0,2-0.3,2.9-1s1.6-1.7,1.7-2.5l0,0
			c0.3,0.1,0.7,0.1,1,0.1c1,0,2-0.3,3-1c1.9-1.2,2.2-2.8,2.2-3.9c0.3,0.1,0.7,0.1,1,0.1c1,0,1.9-0.3,2.8-0.9
			c1.2-0.7,1.9-1.9,1.9-3.2c0.1-0.9-0.1-1.8-0.6-2.6c3.1-1.3,10.2-4,18.6-5.8c-0.1-0.7-0.1-1.3-0.3-1.9
			C138.4,687.7,130.8,691,128.9,691.8"/>
		<path class="st13" d="M305.6,681.5c-0.8,1.1-2,1.6-3.5,1.6s-2.7-0.5-3.5-1.6s-1.2-2.6-1.2-4.6s0.4-3.5,1.2-4.6s2-1.6,3.5-1.6
			s2.7,0.5,3.5,1.6s1.2,2.6,1.2,4.6S306.4,680.4,305.6,681.5z M309.8,669.3c-1.7-2.1-4.2-3.2-7.7-3.2s-6,1.1-7.7,3.2
			c-1.7,2.1-2.5,4.6-2.5,7.5s0.8,5.4,2.5,7.5s4.2,3.1,7.7,3.1s6-1,7.7-3.1s2.5-4.6,2.5-7.5S311.4,671.5,309.8,669.3"/>
		<path class="st13" d="M264,679c0,1.8-0.5,3-1.5,3.6s-2,1-3.2,1c-0.7,0-1.3-0.2-1.8-0.6c-0.5-0.4-0.8-1-0.8-1.9
			c0-1,0.4-1.7,1.2-2.2c0.5-0.3,1.3-0.5,2.4-0.7l1.2-0.2c0.6-0.1,1.1-0.2,1.4-0.4c0.4-0.1,0.7-0.3,1-0.5L264,679L264,679z
			 M266.7,667.6c-1.7-0.9-3.7-1.3-5.9-1.3c-3.4,0-5.8,0.9-7.2,2.7c-0.9,1.1-1.4,2.6-1.5,4.3h5.1c0.1-0.8,0.4-1.4,0.8-1.8
			c0.5-0.6,1.4-0.9,2.7-0.9c1.1,0,2,0.2,2.5,0.5c0.6,0.3,0.9,0.9,0.9,1.7c0,0.7-0.4,1.2-1.1,1.5c-0.4,0.2-1.1,0.3-2.1,0.5l-1.8,0.2
			c-2,0.2-3.6,0.7-4.6,1.3c-1.9,1.1-2.9,2.9-2.9,5.3c0,1.9,0.6,3.4,1.8,4.4s2.7,1.5,4.5,1.6c11.4,0.5,11.3-6,11.4-7.4v-7.5
			C269.2,670.1,268.4,668.5,266.7,667.6"/>
		<path class="st13" d="M240.6,670.8c1.3,0,2.3,0.4,2.9,1.2c0.4,0.6,0.7,1.3,0.8,2h5.6c-0.3-2.8-1.3-4.8-3-6
			c-1.7-1.1-3.8-1.7-6.5-1.7c-3.1,0-5.6,1-7.3,2.9c-1.8,1.9-2.6,4.6-2.6,8c0,3,0.8,5.5,2.4,7.4c1.6,1.9,4.1,2.9,7.5,2.9
			s5.9-1.1,7.7-3.4c1.1-1.4,1.7-2.9,1.8-4.5h-5.6c-0.1,1-0.4,1.9-1,2.6c-0.5,0.7-1.5,1-2.8,1c-1.8,0-3.1-0.8-3.7-2.5
			c-0.4-0.9-0.5-2.1-0.5-3.5s0.2-2.8,0.5-3.7C237.5,671.6,238.8,670.8,240.6,670.8"/>
		<path class="st13" d="M229,666.3c-11.6,0-10.9,10.3-10.9,10.3V687h5.2v-9.8c0-1.6,0.2-2.8,0.6-3.6c0.7-1.4,2.1-2,4.2-2
			c0.2,0,0.4,0,0.6,0c0.2,0,0.6,0,0.9,0.1v-5.3c-0.2,0-0.4,0-0.4,0C229.2,666.4,229.1,666.3,229,666.3"/>
		<path class="st13" d="M202.6,671.8c0.7-0.8,1.8-1.1,3.1-1.1c1.2,0,2.3,0.4,3.1,1.1c0.8,0.7,1.3,1.8,1.4,3.2h-9
			C201.4,673.6,201.9,672.5,202.6,671.8L202.6,671.8z M209.7,681.6c-0.2,0.3-0.5,0.6-0.7,0.8c-0.7,0.6-1.8,0.8-2.9,0.8
			c-1.1,0-2-0.2-2.8-0.7c-1.3-0.8-2.1-2.2-2.1-4.2h14.5c0-1.7,0-3-0.2-4c-0.2-1.6-0.8-2.9-1.6-4.1c-0.9-1.3-2.1-2.3-3.4-3
			c-1.4-0.6-2.9-0.9-4.7-0.9c-2.9,0-5.3,0.9-7.1,2.8c-1.8,1.8-2.8,4.5-2.8,8c0,3.7,1,6.4,3.1,8c2,1.6,4.4,2.5,7,2.5
			c3.2,0,5.7-1,7.5-2.9c1-1,1.6-2,1.8-3L209.7,681.6"/>
		<path class="st13" d="M193.7,687h-4.8v-12.1c0-1.1-0.4-3.7-3.5-3.7c-2.1,0-3.6,1.5-3.6,3.7V687H177v-12.1c0-1.1-0.3-3.7-3.5-3.7
			c-2.1,0-3.6,1.5-3.6,3.7V687H165v-12c0-5,3.3-8.8,8.4-8.8c2.6,0,4.6,1.1,6,2.8c1.4-1.7,3.5-2.8,6-2.8c5.2,0,8.3,3.6,8.3,8.8V687"
			/>
		<path class="st13" d="M284,681.5c-0.8,1.1-1.9,1.7-3.4,1.7s-2.6-0.5-3.3-1.7s-1.1-2.7-1.1-4.6c0-1.7,0.4-3.1,1.1-4.3
			s1.8-1.7,3.4-1.7c1,0,1.9,0.3,2.6,1c1.2,1,1.9,2.9,1.9,5.4C285.2,679,284.8,680.4,284,681.5L284,681.5z M290.3,660
			c0,0-5.3-0.6-5.3,3.7v5.6c-0.6-0.9-1.4-1.7-2.3-2.2s-2-0.8-3.2-0.8c-2.6,0-4.7,1-6.3,2.9s-2.4,4.8-2.4,8.2c0,3,0.8,5.4,2.4,7.3
			c1.6,1.9,4.7,2.7,7.5,2.7c9.7,0,9.6-8.3,9.6-8.3L290.3,660"/>
		<path class="st14" d="M212.2,706.2c0-2-0.4-3.5-1.2-4.6s-1.9-1.6-3.3-1.6s-2.5,0.5-3.2,1.6c-0.7,1-1.1,2.5-1.1,4.6
			c0,1.9,0.4,3.4,1.2,4.3c0.8,1.1,1.9,1.6,3.3,1.6c1.3,0,2.4-0.5,3.2-1.6C211.8,709.4,212.2,708,212.2,706.2 M203.4,720.4
			c0,0.7-0.3,1.3-0.8,1.8s-1.1,0.8-1.9,0.8h-2.6v-18.3c0-3.5,1.2-5.8,3.2-7.3c1.3-1,3.2-1.9,6.9-1.9c2.4,0,5.3,1,6.9,2.8
			c1.7,2.1,2.5,4.5,2.5,7.6s-0.8,5.8-2.3,7.8c-1.5,1.9-3.5,2.9-5.9,2.9c-1.3,0-2.4-0.2-3.4-0.7s-1.9-1.3-2.5-2.4L203.4,720.4"/>
		<path class="st14" d="M243.7,706.2c0,3.5,1,5.5,3,5.8c2,0.4,3.5-0.1,4.5-1.4c0.5-0.5,0.8-1.4,1-2.6c0.2-1.2,0.2-2.4,0-3.5
			c-0.2-1.2-0.6-2.2-1.2-3.1c-0.6-0.9-1.6-1.4-2.9-1.4c-1.7,0-2.9,0.6-3.5,1.9C244,703.1,243.7,704.5,243.7,706.2 M252.4,714.9v-1.3
			c-0.9,1.4-2.1,2.3-3.7,2.7s-3.1,0.2-4.6-0.4c-1.5-0.6-2.8-1.7-3.9-3.4c-1.1-1.7-1.6-3.8-1.6-6.5c0-3.1,0.7-5.7,2.2-7.7
			s3.8-2.8,6.9-2.9c3.1-0.1,5,0.6,6.8,2c1.9,1.5,3.1,3.8,3.1,7.3v10.8c0,3.4-2.4,9.8-9.9,9.2c-4.6-0.3-7.2-2.2-8.6-6.5h5.5
			c0.4,0.7,1,1.2,1.9,1.6c0.8,0.4,1.7,0.5,2.5,0.3s1.6-0.7,2.3-1.5C251.9,717.8,252.3,716.6,252.4,714.9"/>
		<path class="st14" d="M231.4,708.3c0,1.8-0.5,3-1.5,3.6s-2,1-3.2,1c-0.7,0-1.3-0.2-1.8-0.6c-0.5-0.4-0.8-1-0.8-1.9
			c0-1,0.4-1.7,1.2-2.2c0.5-0.3,1.3-0.5,2.4-0.7l1.2-0.2c0.6-0.1,1.1-0.2,1.4-0.4c0.4-0.1,0.7-0.3,1-0.5L231.4,708.3L231.4,708.3z
			 M234.1,696.9c-1.7-0.9-3.7-1.3-5.9-1.3c-3.4,0-5.8,0.9-7.2,2.7c-0.9,1.1-1.4,2.6-1.5,4.3h5.1c0.1-0.8,0.4-1.4,0.7-1.8
			c0.5-0.6,1.4-0.9,2.7-0.9c1.1,0,2,0.2,2.6,0.5s0.9,0.9,0.9,1.7c0,0.7-0.4,1.2-1.1,1.5c-0.4,0.2-1.1,0.3-2.1,0.5l-1.8,0.2
			c-2,0.3-3.6,0.7-4.6,1.3c-1.9,1.1-2.9,2.9-2.9,5.3c0,1.9,0.6,3.4,1.8,4.4s2.7,1.5,4.5,1.6c11.4,0.5,11.3-6,11.4-7.4V702
			C236.6,699.4,235.8,697.8,234.1,696.9"/>
		<path class="st14" d="M273.2,710.6c-0.8,1.1-2,1.6-3.5,1.6s-2.7-0.5-3.5-1.6S265,708,265,706s0.4-3.5,1.2-4.6
			c0.8-1.1,2-1.6,3.5-1.6s2.7,0.5,3.5,1.6s1.2,2.6,1.2,4.6S274.1,709.5,273.2,710.6 M277.4,698.5c-1.7-2.1-4.2-3.2-7.7-3.2
			s-6,1-7.7,3.2c-1.7,2.1-2.5,4.6-2.5,7.5s0.8,5.4,2.5,7.5s4.2,3.1,7.7,3.1s6-1,7.7-3.1s2.5-4.6,2.5-7.5S279.1,700.6,277.4,698.5"/>
	</g>
	<g>
		<path d="M98.2,612.2c-0.5,0.8-1.1,1.5-1.9,1.5c-0.6,0-0.6-0.6-0.6-0.8c0-0.6,1.1-4,1.1-4.3s-0.1-0.3-0.8-0.3V608
			c0.5,0,1.6-0.2,2.2-0.3l0,0L97,612c-0.1,0.2-0.2,0.7-0.2,0.9c0,0.1,0.1,0.2,0.2,0.2C97.2,613.1,97.6,612.8,98.2,612.2L98.2,612.2
			L98.2,612.2z"/>
		<path d="M98,606.2c-0.3,0-0.7-0.2-0.7-0.7s0.3-0.7,0.6-0.7c0.4,0,0.7,0.4,0.7,0.7S98.4,606.2,98,606.2L98,606.2z"/>
		<path d="M104.6,612.2c-0.7,0.9-1.1,1.5-1.9,1.5c-0.6,0-0.7-0.4-0.7-0.8c0-0.3,1-3.6,1-4.1c0-0.2-0.1-0.4-0.3-0.4
			c-0.7,0-1.5,1.2-2,1.9c-0.6,0.9-0.8,1.5-1.3,3.3h-1c0.4-1.5,1.3-4.7,1.3-5c0-0.2-0.1-0.3-0.9-0.3v-0.2c0.7-0.1,1.4-0.3,2.2-0.4
			l0,0l-0.9,2.8l0,0c0.6-1,1.9-2.9,3-2.9c0.6,0,0.9,0.3,0.9,0.9s-1.1,3.9-1.1,4.3c0,0.2,0.2,0.2,0.2,0.2c0.3,0,0.6-0.4,1.1-1.1
			L104.6,612.2L104.6,612.2z"/>
		<path d="M109.8,613.6l1.1-3.9c0.1-0.5,0.2-1,0.2-1.1c0-0.2-0.1-0.4-0.5-0.4c-0.2,0-0.3,0-0.4,0.1V608c0.7-0.1,1.5-0.3,2.1-0.4l0,0
			l-0.7,2.7l0,0l0.1-0.3c0.4-0.9,1.5-2.5,2.3-2.5c0.3,0,0.7,0.2,0.7,0.7c0,0.7-0.5,0.7-0.6,0.7c-0.6,0-0.4-0.5-0.7-0.5
			c-0.4,0-1.2,1.5-1.3,1.7c-0.5,1-0.7,1.6-1.2,3.4L109.8,613.6L109.8,613.6z"/>
		<path d="M114.1,611.7c0.1,0.6,0.3,1.8,1.4,1.8c0.8,0,1-0.7,1-1.1c0-0.9-1.6-2.2-1.6-3.2c0-0.4,0.2-1.5,1.6-1.5
			c0.6,0,0.9,0.2,1.3,0.2c0.2,0,0.3-0.1,0.4-0.2h0.2l-0.3,1.9h-0.2c-0.1-0.8-0.4-1.5-1.3-1.5c-0.3,0-0.7,0.1-0.7,0.8
			c0,0.8,1.6,2,1.6,3.2c0,1.5-1.2,1.8-2,1.8c-0.4,0-0.9-0.3-1.3-0.3c-0.2,0-0.2,0.1-0.3,0.3h-0.2l0.3-2.1L114.1,611.7L114.1,611.7z"
			/>
		<path d="M128.9,607.3c0-0.4-0.1-2.2-2.1-2.2c-2.7,0-4.1,3.3-4.1,5.2c0,1.8,0.7,2.9,2.3,2.9s2.5-1,3.1-1.6l0.2,0.2
			c-0.5,0.6-1.7,2-3.7,2c-1.6,0-3.5-0.9-3.5-3.6s2.4-5.6,5.5-5.6c1,0,1.8,0.3,2.1,0.3c0.4,0,0.5-0.2,0.5-0.3h0.3l-0.5,2.7
			L128.9,607.3L128.9,607.3z"/>
		<path d="M131.9,612.1c-0.7,1-1.2,1.7-2,1.7c-0.6,0-0.6-0.5-0.6-0.8s1.9-7.3,1.9-7.6s-0.6-0.3-0.9-0.3v-0.2
			c0.7-0.1,1.4-0.2,2.1-0.4l0.1,0.1l-2,7.8c0,0.1-0.1,0.5-0.1,0.6s0,0.3,0.2,0.3C130.9,613.3,131.2,612.9,131.9,612.1L131.9,612.1
			L131.9,612.1z"/>
		<path d="M138,612.2c-0.9,1.2-1.2,1.6-1.9,1.6c-0.6,0-0.6-0.5-0.6-0.7s0.3-1.4,0.6-2.5l0,0c-0.9,1.5-1.9,3.2-3.1,3.2
			c-0.5,0-0.7-0.2-0.7-0.8s1-4,1-4.3c0-0.4-0.3-0.4-0.8-0.4V608c0.7-0.1,1.4-0.2,2-0.4l0,0l-1.2,4.9c0,0.2,0,0.5,0.3,0.5
			c0.6,0,1.4-1.3,1.9-2c0.7-1,1-1.8,1.5-3.3h1l-1.1,4c-0.1,0.3-0.3,0.9-0.3,1.1c0,0.1,0,0.2,0.2,0.2c0.3,0,0.6-0.5,1.1-1.1
			L138,612.2L138,612.2z"/>
		<path d="M83.4,623.8c0.7-0.1,0.9-0.2,1.1-1l1.6-5.6c0.1-0.3,0.2-0.6,0.2-0.8c0-0.5-0.4-0.5-0.9-0.6v-0.2h3.3v0.2
			c-0.7,0.1-0.9,0.2-1.1,1l-1.6,5.6c-0.1,0.3-0.2,0.5-0.2,0.9s0.3,0.5,0.9,0.5v0.2h-3.3V623.8L83.4,623.8z"/>
		<path d="M93.7,622.6c-0.7,0.9-1.1,1.5-1.9,1.5c-0.6,0-0.7-0.4-0.7-0.8c0-0.3,1-3.6,1-4.1c0-0.2-0.1-0.4-0.3-0.4
			c-0.7,0-1.5,1.2-2,1.9c-0.6,0.9-0.8,1.5-1.3,3.3h-1c0.4-1.5,1.3-4.7,1.3-5c0-0.2-0.1-0.3-0.9-0.3v-0.2c0.7-0.1,1.4-0.3,2.2-0.4
			l0,0l-0.9,2.8l0,0c0.6-1,1.9-2.9,3-2.9c0.6,0,0.9,0.3,0.9,0.9s-1.1,3.9-1.1,4.3c0,0.2,0.2,0.2,0.2,0.2c0.3,0,0.6-0.4,1.1-1.1
			L93.7,622.6L93.7,622.6z"/>
		<path d="M97.3,618.6h-1.1l-1.2,4.5v0.1c0,0.1,0.1,0.2,0.2,0.2c0.3,0,0.7-0.6,1.1-1.1l0.2,0.1c-0.7,1-1.2,1.6-1.9,1.6
			c-0.3,0-0.7-0.1-0.7-0.5c0-0.2,0.3-1,0.3-1.2l1-3.7h-1c0-0.1,0-0.2,0-0.2c0.1-0.1,0.5-0.2,0.7-0.3c0.4-0.2,1.1-0.8,1.5-1.3
			c0.1-0.1,0.1-0.2,0.2-0.2s0.1,0.1,0.1,0.2l-0.4,1.4h1.1L97.3,618.6L97.3,618.6z"/>
		<path d="M101.9,624l1.1-3.9c0.1-0.5,0.2-1,0.2-1.1c0-0.2-0.1-0.4-0.5-0.4c-0.2,0-0.3,0-0.4,0.1v-0.2c0.7-0.1,1.5-0.3,2.1-0.4l0,0
			l-0.7,2.7l0,0l0.1-0.3c0.4-0.9,1.5-2.5,2.3-2.5c0.3,0,0.7,0.2,0.7,0.7c0,0.7-0.5,0.7-0.6,0.7c-0.6,0-0.4-0.5-0.7-0.5
			c-0.4,0-1.2,1.5-1.3,1.7c-0.5,1-0.7,1.6-1.2,3.4H101.9L101.9,624z"/>
		<path d="M112.7,622.6c-0.7,0.9-1.1,1.5-1.9,1.5c-0.6,0-0.7-0.4-0.7-0.8c0-0.3,1-3.6,1-4.1c0-0.2-0.1-0.4-0.3-0.4
			c-0.7,0-1.5,1.2-2,1.9c-0.6,0.9-0.8,1.5-1.3,3.3h-1c0.4-1.5,1.3-4.7,1.3-5c0-0.2-0.1-0.3-0.9-0.3v-0.2c0.7-0.1,1.4-0.3,2.2-0.4
			l0,0l-0.9,2.8l0,0c0.6-1,1.9-2.9,3-2.9c0.6,0,0.9,0.3,0.9,0.9s-1.1,3.9-1.1,4.3c0,0.2,0.2,0.2,0.2,0.2c0.3,0,0.6-0.4,1.1-1.1
			L112.7,622.6L112.7,622.6z"/>
		<path d="M122.3,618.6h-1.1l-1.2,4.5v0.1c0,0.1,0.1,0.2,0.2,0.2c0.3,0,0.7-0.6,1.1-1.1l0.2,0.1c-0.7,1-1.2,1.6-1.9,1.6
			c-0.3,0-0.7-0.1-0.7-0.5c0-0.2,0.3-1,0.3-1.2l1-3.7h-1c0-0.1,0-0.2,0-0.2c0.1-0.1,0.5-0.2,0.7-0.3c0.4-0.2,1.1-0.8,1.5-1.3
			c0.1-0.1,0.1-0.2,0.2-0.2s0.1,0.1,0.1,0.2l-0.4,1.4h1.1L122.3,618.6L122.3,618.6z"/>
		<path d="M125.1,622.6c-0.5,0.8-1.1,1.5-1.9,1.5c-0.6,0-0.6-0.6-0.6-0.8c0-0.6,1.1-4,1.1-4.3s-0.1-0.3-0.8-0.3v-0.2
			c0.5,0,1.6-0.2,2.2-0.3l0,0l-1.2,4.3c-0.1,0.2-0.2,0.7-0.2,0.9c0,0.1,0.1,0.2,0.2,0.2c0.2,0,0.6-0.3,1.1-1L125.1,622.6
			L125.1,622.6z"/>
		<path d="M124.9,616.6c-0.3,0-0.7-0.2-0.7-0.7s0.3-0.7,0.6-0.7c0.4,0,0.7,0.4,0.7,0.7C125.5,616.2,125.3,616.6,124.9,616.6
			L124.9,616.6z"/>
		<path d="M137.1,622.6c-0.7,0.9-1.1,1.5-1.9,1.5c-0.6,0-0.6-0.4-0.6-0.8c0-0.3,1-3.6,1-4.1c0-0.2-0.1-0.4-0.3-0.4
			c-0.6,0-1.5,1.2-2,1.9c-0.6,0.9-0.8,1.5-1.4,3.3h-1c0.4-1.5,1.3-4.7,1.3-5c0-0.2-0.1-0.3-0.9-0.3v-0.2c0.7-0.1,1.4-0.3,2.2-0.4
			l0,0l-0.9,2.8l0,0c0.6-1,1.9-2.9,3-2.9c0.6,0,0.9,0.3,0.9,0.9s-1.1,3.9-1.1,4.3c0,0.2,0.2,0.2,0.2,0.2c0.3,0,0.6-0.4,1.1-1.1
			L137.1,622.6L137.1,622.6z"/>
		<path d="M145.9,622.8c-0.7,1-0.9,1.3-1.8,1.3c-0.6,0-0.6-0.5-0.6-0.8s1.9-7.3,1.9-7.6s-0.6-0.3-0.9-0.3v-0.2
			c0.7-0.1,1.4-0.2,2.1-0.4l0.1,0.1l-2,7.8c0,0.1-0.1,0.5-0.1,0.6s0,0.3,0.2,0.3c0.3,0,0.4,0,1-0.9L145.9,622.8L145.9,622.8z"/>
		<path class="st15" d="M122.8,602.1c7.4,0,13.3-6,13.3-13.3s-6-13.3-13.3-13.3H106c-7.3,0-13.3,6-13.3,13.3s6,13.3,13.3,13.3H122.8
			z"/>
		<circle class="st0" cx="106" cy="588.8" r="13"/>
		<path class="st15" d="M103.4,581.2c-3.1,1.1-5.3,4-5.3,7.5s2.2,6.4,5.3,7.5V581.2L103.4,581.2z"/>
		<path class="st15" d="M114,588.8c0,3.5-2.2,6.4-5.3,7.5v-15C111.7,582.3,114,585.3,114,588.8"/>
		<path d="M91.4,605.1h-3.5v0.2c0.7,0,1,0.1,1,0.6c0,0.3-0.1,0.7-0.2,0.8l-1.6,5.7c-0.2,0.8-0.4,0.9-1.1,1v0.2h3.4
			c4,0,5.8-2.2,5.8-4.9C95.3,607.3,94.5,605.1,91.4,605.1L91.4,605.1z M89.4,613.2c-0.6,0-1-0.1-1-0.5c0-0.2,0.2-0.8,0.3-1.2
			l1.6-5.5c0.1-0.2,0.1-0.4,0.9-0.4c2.4,0,2.6,1.7,2.6,3C93.8,609.3,93.7,613.2,89.4,613.2z"/>
		<path d="M106.4,611.1c2.2-0.3,3.4-1.4,3.4-2.5c0-0.6-0.4-0.9-1.1-0.9c-1.9,0-4,2.3-4,4.2c0,0.8,0.4,1.9,1.8,1.9s2.6-1.2,2.7-1.5
			l-0.2-0.2c-0.7,0.5-1.2,1-2,1c-0.6,0-1.3-0.3-1.3-1.2c0-0.3,0.1-0.5,0.1-0.8H106.4L106.4,611.1z M106.4,610.2
			c0.5-1.2,1.4-2.2,2.1-2.2c0.3,0,0.5,0.3,0.5,0.5c0,0.1-0.1,1.7-2.8,2.3L106.4,610.2L106.4,610.2z"/>
		<path d="M142.6,607.3c-1.2,0-1.9,0.7-2.3,1.4l0,0c0.5-1.5,0.9-3,1.2-4.1l-0.1-0.1c-0.7,0.1-1.4,0.2-2.1,0.3v0.2
			c0.8,0,0.9,0.1,0.9,0.4c0,0.2-0.1,0.5-0.2,0.9l-1.8,6.7l0,0c0,0.3,1,0.7,1.8,0.7c2.1,0,4.3-2.3,4.3-4.5
			C144.1,608.3,143.5,607.2,142.6,607.3L142.6,607.3z M139.9,613.5c-0.6,0-0.6-0.3-0.6-0.4c0.2-2.4,1.3-5,2.8-5
			c0.9,0,0.9,1.1,0.9,1.5C143,610.6,141.7,613.5,139.9,613.5z"/>
		<path d="M98.6,621.4c2.2-0.3,3.4-1.4,3.4-2.5c0-0.6-0.4-0.9-1.1-0.9c-1.9,0-4,2.3-4,4.2c0,0.8,0.4,1.9,1.8,1.9s2.6-1.2,2.7-1.5
			l-0.2-0.2c-0.7,0.5-1.2,1-2,1c-0.6,0-1.3-0.3-1.3-1.2c0-0.3,0.1-0.5,0.1-0.8H98.6L98.6,621.4z M98.5,620.6
			c0.5-1.2,1.4-2.2,2.1-2.2c0.3,0,0.5,0.3,0.5,0.5c0,0.1-0.1,1.7-2.8,2.3L98.5,620.6L98.5,620.6z"/>
		<path d="M118.7,622.5c-0.6,0.6-0.9,0.9-1.1,0.9c-0.1,0-0.2-0.1-0.2-0.2c0-0.4,1.2-5,1.3-5.2h-0.1l-0.8,0.1l0,0l-0.1,0.6l0,0
			c0-0.4-0.5-0.7-1.1-0.7c-1.8,0-3.8,2.5-3.8,4.5c0,0.4,0,1.6,1.4,1.6c0.8,0,1.5-0.4,2.6-2l0,0c-0.2,0.8-0.3,1.1-0.3,1.4
			c0,0.2,0,0.6,0.6,0.6s1-0.5,1.8-1.5L118.7,622.5L118.7,622.5z M114.7,623.4c-0.4,0-0.8-0.2-0.8-1c0-1.2,1.2-4.2,2.8-4.2
			c0.4,0,0.8,0.3,0.8,0.9C117.4,620.5,116.1,623.4,114.7,623.4L114.7,623.4z"/>
		<path d="M129.3,618c-2,0-4,2.2-4,4.1c0,1.1,0.6,1.9,2,1.9c2.1,0,3.9-2.4,3.9-4.1C131.3,619.1,130.8,618,129.3,618L129.3,618z
			 M127.5,623.8c-0.7,0-1.1-0.5-1.1-1.2c0-1.6,1.2-4.3,2.7-4.3c0.6,0,0.9,0.6,0.9,1.3C130.1,621,129.1,623.8,127.5,623.8
			L127.5,623.8z"/>
		<path d="M143.1,622.5c-0.6,0.6-0.9,0.9-1.1,0.9c-0.1,0-0.2-0.1-0.2-0.2c0-0.4,1.2-5,1.3-5.2H143l-0.8,0.1l0,0l-0.1,0.6l0,0
			c0-0.4-0.5-0.7-1.1-0.7c-1.8,0-3.9,2.5-3.9,4.5c0,0.4,0,1.6,1.4,1.6c0.8,0,1.5-0.4,2.6-2l0,0c-0.2,0.8-0.3,1.1-0.3,1.4
			c0,0.2,0,0.6,0.6,0.6S142.4,623.6,143.1,622.5L143.1,622.5L143.1,622.5z M139.1,623.4c-0.4,0-0.8-0.2-0.8-1c0-1.2,1.2-4.2,2.8-4.2
			c0.4,0,0.8,0.3,0.8,0.9C141.8,620.5,140.5,623.4,139.1,623.4L139.1,623.4z"/>
	</g>
	<g>
		<path class="st3" d="M66.9,468.3h95.8c5.3,0,9.6,4.3,9.6,9.6v50.8c0,5.3-4.3,9.6-9.6,9.6H66.9c-5.3,0-9.6-4.3-9.6-9.6v-50.8
			C57.3,472.6,61.6,468.3,66.9,468.3z"/>
		<g>
			<rect x="90.6" y="479.1" class="st16" width="48.3" height="48.3"/>
			<g>
				<path class="st0" d="M113.8,506.7c0.5,0,1.1,0,1.6,0c0.2,0,0.4,0,0.5,0.2c0.3,0.2,0.3,0.7,0,0.9c-0.1,0.1-0.3,0.2-0.6,0.2
					c-0.5,0-1.1,0-1.6,0L113.8,506.7L113.8,506.7z"/>
				<path class="st0" d="M119.6,506.7c0.5,0,1,0,1.5,0c0.2,0,0.3,0,0.4,0c0.2,0.1,0.4,0.4,0.4,0.6c-0.1,0.3-0.3,0.5-0.6,0.5
					c-0.6,0-1.1,0-1.7,0L119.6,506.7L119.6,506.7z"/>
				<path class="st0" d="M124.8,502.1L124.8,502.1L124.8,502.1z"/>
				<path class="st0" d="M112.6,496.7c0.6,0,1.1,0,1.7,0c0.3,0,0.7,0.3,0.7,0.6c0,0.3-0.3,0.6-0.7,0.6c-0.6,0-1.1,0-1.7,0V496.7
					L112.6,496.7z"/>
				<path class="st0" d="M93.2,498.7l0.8-2l0.8,2H93.2L93.2,498.7z"/>
				<path class="st0" d="M125.1,498.7l0.8-2l0.8,2H125.1z"/>
				<g>
					<path class="st0" d="M136.3,506.7c-0.3,0-0.6,0.4-0.4,0.7c0.2,0.3,0.6,0.2,0.9,0.2c0.7,0,1.6-0.1,2.2,0.4v-1.6
						c-0.1,0.1-0.1,0.2-0.2,0.4C137.9,506.7,137.1,506.7,136.3,506.7L136.3,506.7z"/>
					<path class="st0" d="M138.9,510.6c-0.1,0.1-0.2,0.1-0.3,0.2c-0.4,0.2-0.8,0.3-1.2,0.3c-1,0-2,0-2.9,0c0-0.4,0-0.9,0-1.3
						c1,0,2,0,3,0c0.3,0,0.6-0.4,0.4-0.7c-0.2-0.3-0.6-0.2-0.9-0.2c-0.7,0-1.4,0.1-2-0.3c-0.9-0.6-0.9-2.2,0-2.9
						c0.4-0.3,0.8-0.4,1.3-0.4c0.9,0,1.8,0,2.6,0v-1c-9.7,0-19.3,0-29,0l-0.9,1.1l-0.9-1.1H100c0,2.5,0,5.1,0,7.7c2.7,0,5.4,0,8,0
						l0.9-1.1l0.9,1.1h4.9v-1.8c0.8,0,1.7,0.1,2.5-0.3v2.1h3.2v-1.2l1.1,1.2c5.2,0,10.3,0,15.5,0c0.3,0,0.6,0,0.9,0
						c0.3,0,0.6-0.1,0.6-0.1c0.1,0,0.3-0.1,0.5-0.2L138.9,510.6L138.9,510.6z M105.7,506.7h-3.2v1h3.2v1.2h-3.2v1h3.2v1.2H101v-5.7
						c1.6,0,3.1,0,4.7,0V506.7L105.7,506.7z M112.1,511.2h-1.8l-1.3-1.8l-1.3,1.8h-1.8c0.8-1,1.5-1.9,2.3-2.8l-2.3-2.9h1.8l1.4,1.8
						l1.4-1.8h1.7c-0.8,1-1.5,1.9-2.3,2.9C110.6,509.2,111.4,510.2,112.1,511.2L112.1,511.2z M117.5,507.6c-0.1,0.5-0.3,0.9-0.6,1.2
						c-0.4,0.3-0.9,0.5-1.4,0.5c-0.6,0-1.1,0-1.7,0v1.8h-1.5v-5.7c1.1,0,2.2,0,3.2,0c0.6,0,1.2,0.2,1.5,0.6
						C117.4,506.5,117.6,507.1,117.5,507.6L117.5,507.6z M121.9,511.2l-1.7-2h-0.6v2h-1.4v-5.7c1.1,0,2.1,0,3.2,0
						c0.6,0,1.2,0.2,1.6,0.6c0.4,0.5,0.5,1.1,0.4,1.7c-0.2,0.7-0.8,1.2-1.5,1.3l1.9,2.1H121.9L121.9,511.2z M128.5,507.7v1.2h-3.1v1
						h3.2v1.3h-4.7v-5.7h4.7v1.3h-3.2v1L128.5,507.7L128.5,507.7z M133.9,510.4c-0.2,0.3-0.6,0.5-0.9,0.6c-0.3,0.1-0.7,0.1-1.1,0.1
						c-0.9,0-1.8,0-2.6,0c0-0.4,0-0.8,0-1.2c0.9,0,1.9,0,2.9,0c0.2,0,0.4,0,0.5-0.2c0.2-0.2,0.1-0.5-0.1-0.7
						c-0.3-0.2-0.6-0.1-0.9-0.1c-0.6,0-1.1,0.1-1.7-0.2c-0.4-0.2-0.7-0.5-0.8-1s-0.1-1,0.1-1.5c0.2-0.4,0.6-0.7,1-0.8
						c0.4-0.1,0.8-0.1,1.1-0.1c0.9,0,1.8,0,2.7,0c-0.2,0.4-0.4,0.9-0.6,1.3c-0.8,0-1.6,0-2.4,0c-0.2,0-0.5,0.1-0.6,0.3
						c-0.1,0.3,0.1,0.6,0.4,0.6c0.5,0,1,0,1.5,0c0.4,0,0.8,0.1,1.2,0.4c0.3,0.2,0.5,0.6,0.5,1C134.2,509.5,134.1,510,133.9,510.4
						L133.9,510.4z"/>
				</g>
				<path class="st0" d="M136.1,502.1c0-2.5,0-5.1,0-7.6h-3.3v1.3l-0.9-1.3h-3.3v2.4l-1-2.3c-1.9,0-3.8,0-5.7,0
					c-0.9,0-1.8,0.3-2.4,0.9v-0.9c-5.9,0-11.8,0-17.6,0l-0.6,1.7l-0.6-1.7c-1.3,0-2.6,0-3.9,0v2.3h-0.1l-1-2.3h-3.2l-1.8,4.1v2.5
					l2.5-5.7h1.9l2.5,5.7H96l-0.4-1.1h-2.7l-0.4,1.1h-1.6v1h2.3l0.5-1.2H95l0.5,1.2c6.1,0,12.2,0,18.3,0V501l1,1.2h4.9v-0.8
					c0.6,0.5,1.3,0.8,2.1,0.8c1.1,0,2.2,0,3.3,0l0.5-1.2h1.3l0.5,1.2h4.8v-1.3l0.9,1.3L136.1,502.1L136.1,502.1z M103.3,501.1v-4.2
					l-1.5,4.2h-1.3l-1.5-4.2v4.2h-1.4c0-1.9,0-3.8,0-5.7h2.3l1.3,3.7l1.3-3.7h2.3v5.7H103.3L103.3,501.1z M105.7,501.1v-5.7h4.7v1.3
					h-3.2v1c1.1,0,2.1,0,3.2,0v1.2c-1.1,0-2.1,0-3.2,0v1c1.1,0,2.2,0,3.2,0v1.2H105.7z M115,501.1c-0.5-0.7-1.1-1.3-1.6-2l-0.1-0.1
					c-0.2,0-0.4,0-0.6,0v2h-1.4v-5.7c1.1,0,2.1,0,3.2,0c0.6,0,1.2,0.2,1.6,0.6c0.4,0.5,0.5,1.1,0.4,1.7c-0.2,0.7-0.8,1.2-1.5,1.3
					l1.9,2.1C116.7,501.1,114.9,501.1,115,501.1z M117,501.1v-5.7h1.5v5.7H117z M121.9,501.1c-0.4,0-0.8,0-1.1-0.1
					c-0.6-0.2-1.1-0.6-1.3-1.2c-0.3-0.7-0.4-1.5-0.3-2.2c0.1-0.6,0.4-1.3,0.9-1.7c0.6-0.5,1.3-0.6,2-0.6c0.5,0,0.9,0,1.4,0
					c0,0.5,0,0.9,0,1.4c-0.5,0-1.1,0-1.6,0c-0.3,0-0.7,0.1-0.9,0.4c-0.3,0.3-0.4,0.7-0.4,1.1s0.1,0.8,0.3,1.1
					c0.2,0.2,0.4,0.4,0.7,0.5c0.3,0.1,0.7,0.1,1,0.1C122.3,500.3,122.1,500.7,121.9,501.1L121.9,501.1z M127.7,501.1
					c-0.2-0.4-0.3-0.8-0.4-1.1c-0.9,0-1.8,0-2.7,0c-0.2,0.4-0.3,0.8-0.4,1.1c-0.5,0-1.1,0-1.6,0c0.6-1.5,1.2-2.9,1.9-4.4
					c0.2-0.5,0.4-0.9,0.6-1.4c0.6,0,1.2,0,1.9,0l2.5,5.7C128.8,501.1,128.3,501.1,127.7,501.1z M131.1,497.6
					c-0.1-0.1-0.1-0.1-0.1-0.2c0,1.2,0,2.4,0,3.7c-0.5,0-1,0-1.4,0c0-1.9,0-3.8,0-5.7c0.6,0,1.2,0,1.8,0c0.8,1.2,1.5,2.4,2.3,3.6
					c0-1.2,0-2.4,0-3.6c0.5,0,0.9,0,1.4,0c0,1.9,0,3.8,0,5.7c-0.6,0-1.2,0-1.8,0C132.6,500,131.8,498.8,131.1,497.6L131.1,497.6z"/>
			</g>
		</g>
	</g>
</g>
<rect x="55.1" y="253.5" class="st17" width="259.8" height="29"/>
<text transform="matrix(1 0 0 1 62.6354 281.709)" class="st0 st18 st19 st20">SIN INTERÉS</text>
<rect x="55.1" y="217.5" class="st17" width="259.8" height="29"/>
<text transform="matrix(1 0 0 1 105.0162 245.709)" class="st0 st18 st19 st20">CUOTAS</text>
<rect x="55.1" y="37.5" class="st17" width="259.8" height="29"/>
<text transform="matrix(1 0 0 1 119.1432 65.709)" class="st0 st18 st19 st20">HASTA</text>
<rect x="150.9" y="107.1" class="st17" width="68.1" height="63.5"/>
<text transform="matrix(1 0 0 1 160.3049 168.7881)" class="st13 st18 st21 st22">6</text>
</svg>
