<?xml version="1.0" encoding="utf-8"?>
<!-- Generator: Adobe Illustrator 26.2.1, SVG Export Plug-In . SVG Version: 6.00 Build 0)  -->
<svg version="1.1" id="Capa_1" xmlns="http://www.w3.org/2000/svg" xmlns:xlink="http://www.w3.org/1999/xlink" x="0px" y="0px"
	 viewBox="0 0 279 126.8" style="enable-background:new 0 0 279 126.8;" xml:space="preserve">
<style type="text/css">
	.st0{fill:#FFFFFF;}
</style>
<path class="st0" d="M26.3,30.5H38c-0.6,7-8,12.4-14.3,12.4c-9.1,0-17.1-8.4-17.1-18C6.5,15.2,14.2,7.2,23.8,7.1c0.1,0,0.2,0,0.4,0
	c5.5,0.1,10.6,2.8,13.8,7.2l0.3,0.5l4.7-4.5l-0.3-0.4C34.4-0.5,19.3-2.1,8.9,6.2C3.2,10.8,0,17.8,0,25.1c0,13,10.7,24,23.4,24
	s21.9-9.5,21.9-22.5v-2.3H26.3V30.5z"/>
<polygon class="st0" points="68.5,1.9 61.9,1.9 61.9,48.1 82.2,48.1 82.2,41.9 68.5,41.9 "/>
<path class="st0" d="M118,0.9c-13.3,0-24.2,10.8-24.2,24.1c0,0,0,0,0,0c0,13.4,10.8,24.2,24.2,24.2c13.4,0,24.2-10.8,24.2-24.2
	C142.1,11.7,131.3,0.9,118,0.9z M118,42.8c-9.8-0.1-17.6-8-17.6-17.8c0-10.1,7.6-17.8,17.6-17.8s17.6,7.6,17.6,17.8
	C135.6,34.7,127.7,42.7,118,42.8z"/>
<polygon class="st0" points="198.4,33.4 185.7,0 172.9,33.4 160.6,1.9 153.4,1.9 172.9,50.8 185.7,17.6 198.4,50.8 218,1.9 
	210.8,1.9 "/>
<path class="st0" d="M118.4,96.5l-3.2-1.3c-4-1.5-6-3.5-6-6c0-3.7,3.7-5.9,7.1-5.9c3.1,0,5.2,1.2,6.8,4l0.2,0.4l5.4-3.2l-0.2-0.4
	c-2.4-4.4-7-7.2-12.1-7.1c-6.7,0-13.8,4.3-13.8,12.2c0,6.6,4.9,9.7,10.1,11.9l3.1,1.3c3.6,1.5,7.5,3.5,7.5,8.1
	c0.2,4.4-3.3,8.1-7.7,8.3c-0.1,0-0.1,0-0.2,0c-2.2,0-4.4-0.8-6-2.4c-1.5-1.5-2.3-3.5-2.2-5.6v-0.6l-6.8,1.4l0.1,0.5
	c0.8,7.4,7,13,14.5,13.1c8.5,0,15-6.3,15-14.6S124.1,98.7,118.4,96.5z"/>
<polygon class="st0" points="181,78 172.2,78 153.8,96.9 153.8,78 147.1,78 147.1,124.2 153.8,124.2 153.8,105 155.5,103.4 
	172.3,124.2 181.3,124.2 160.2,98.8 "/>
<rect x="194.9" y="78" class="st0" width="6.6" height="46.2"/>
<polygon class="st0" points="254.4,110.6 220.5,75.1 220.5,124.2 227.1,124.2 227.1,91.2 261.1,126.8 261.1,78 254.4,78 "/>
<path class="st0" d="M275,117.2c-2.2,0-4,1.8-4,4c-0.2,2.2,1.3,4.2,3.5,4.4c2.2,0.2,4.2-1.3,4.4-3.5c0-0.3,0-0.6,0-0.9
	C279,119,277.2,117.2,275,117.2z"/>
</svg>
