<?xml version="1.0" encoding="utf-8"?>
<!-- Generator: Adobe Illustrator 26.2.1, SVG Export Plug-In . SVG Version: 6.00 Build 0)  -->
<svg version="1.1" id="Capa_1" xmlns="http://www.w3.org/2000/svg" xmlns:xlink="http://www.w3.org/1999/xlink" x="0px" y="0px"
	 viewBox="0 0 437.7 51.8" style="enable-background:new 0 0 437.7 51.8;" xml:space="preserve">
<style type="text/css">
	.st0{fill:#FFFFFF;}
</style>
<path class="st0" d="M44.8,25.9v1.8c0,12.4-8.8,22-21.4,22S0.5,38.7,0.5,26.1C0.4,13.1,10.9,2.5,23.9,2.4c7.2,0,14,3.2,18.5,8.8
	l-4,3.8c-3.3-4.5-8.6-7.3-14.2-7.4c-10,0-18.1,8.2-18.1,18.2c0,0.1,0,0.2,0,0.2c0,9.5,7.8,18.5,17.6,18.5c7,0,14.6-6.1,14.8-13.4
	H26.8v-5.2H44.8z"/>
<path class="st0" d="M23.4,50.1c-12.7,0-23.4-11-23.4-24C-0.1,12.9,10.6,2,23.9,1.9c7.3,0,14.3,3.2,18.9,9l0.3,0.4l-4.7,4.5L38,15.3
	c-3.2-4.4-8.3-7.1-13.8-7.2c-9.7,0-17.5,7.8-17.6,17.5c0,0.1,0,0.3,0,0.4c0,9.6,8,18,17.1,18C30,44,37.4,38.5,38,31.5H26.3v-6.2
	h18.9v2.3C45.3,40.7,36.1,50.1,23.4,50.1z M24,3C11.3,3.1,1,13.4,1,26.1c0,12.4,10.2,23,22.4,23s20.9-9,20.9-21.5v-1.3H27.3v4.2
	h11.7L39,31c-0.2,6.6-6.8,14-15.3,14c-9.6,0-18.1-8.9-18.1-19C5.4,15.8,13.5,7.3,23.8,7.1c0.1,0,0.3,0,0.4,0
	c5.6,0.1,10.8,2.7,14.3,7.1l3.2-3.1C37.3,6,30.8,3,24,3z"/>
<path class="st0" d="M68,43.5h13.7v5.2H62.4V3.4H68V43.5z"/>
<path class="st0" d="M82.2,49.2H61.9V2.9h6.6V43h13.7V49.2z M62.9,48.2h18.4V44H67.5V3.9h-4.6V48.2z"/>
<path class="st0" d="M141.7,26c0,13.1-10.6,23.7-23.7,23.7c-13.1,0-23.7-10.6-23.7-23.7c0-13.1,10.6-23.7,23.7-23.7
	C131.1,2.3,141.7,12.9,141.7,26z M136,26c0-10-7.4-18.3-18.1-18.3s-18,8.4-18,18.3c-0.5,10,7.2,18.4,17.2,18.9s18.4-7.2,18.9-17.2
	C136,27.1,136,26.6,136,26z"/>
<path class="st0" d="M118,50.1c-13.2,0.2-24-10.4-24.2-23.6c0-0.2,0-0.4,0-0.6c0-13.4,10.8-24.2,24.2-24.2
	c13.4,0,24.2,10.8,24.2,24.2c0.1,13.2-10.5,24-23.7,24.1C118.3,50.1,118.2,50.1,118,50.1z M118,3c-12.7,0-23.1,10.3-23.2,23
	c0,12.8,10.4,23.2,23.2,23.2c12.8,0,23.2-10.4,23.2-23.2C141.1,13.3,130.7,3,118,3z M118,44.9c-10.3-0.1-18.7-8.5-18.6-18.8
	c0,0,0,0,0,0c0-10.7,8-18.8,18.6-18.8s18.6,8.1,18.6,18.8C136.6,36.3,128.3,44.7,118,44.9L118,44.9z M118,8.3
	c-10,0-17.6,7.6-17.6,17.8c0,9.7,7.9,17.6,17.6,17.6s17.6-7.9,17.6-17.6c0,0,0,0,0,0C135.5,15.9,128,8.2,118,8.3L118,8.3z"/>
<path class="st0" d="M172.9,35.8l12.8-33.4l12.8,33.4l12.7-32.4h6.1l-18.8,47l-12.8-33.1l-12.8,33.2l-18.8-47h6.1L172.9,35.8z"/>
<path class="st0" d="M198.4,51.8l-12.8-33.2l-12.8,33.2L153.4,2.9h7.2l12.3,31.5L185.7,1l12.8,33.4l12.3-31.5h7.2L198.4,51.8z
	 M185.7,15.9l12.8,33.2l18-45.2h-5l-13,33.3L185.7,3.8l-12.8,33.3l-13-33.3h-5l18,45.2L185.7,15.9z"/>
<path class="st0" d="M282.2,12c-1.4-2.7-4.2-4.4-7.3-4.3c-3.6,0-7.6,2.5-7.6,6.4c0,3.5,3.5,5.4,6.3,6.5l3.2,1.3
	c6.4,2.5,11.2,6.1,11.2,13.6c0,8.2-6.4,14.1-14.5,14.1c-7.3,0-13-5.4-14-12.7l5.7-1.2c-0.1,4.7,3.7,8.5,8.4,8.6c0.1,0,0.3,0,0.4,0
	c4.9,0,8.3-4.1,8.3-8.8s-3.9-7-7.8-8.6l-3.1-1.3c-5.2-2.2-9.8-5.2-9.8-11.5c0-7.3,6.5-11.7,13.3-11.7c4.9-0.1,9.4,2.5,11.7,6.8
	L282.2,12z"/>
<path class="st0" d="M273.7,50.1c-7.5-0.1-13.7-5.7-14.5-13.1l-0.1-0.5l6.8-1.4v0.6c-0.1,2.1,0.7,4.1,2.2,5.6c1.6,1.6,3.8,2.5,6,2.4
	c4.4-0.1,7.9-3.7,7.9-8.1c0-0.1,0-0.1,0-0.2c0-4.6-3.9-6.6-7.5-8.1l-3.1-1.3c-5.3-2.3-10.1-5.3-10.1-11.9c0-7.9,7.1-12.2,13.8-12.2
	c5-0.1,9.7,2.6,12.1,7.1l0.2,0.4l-5.4,3.2l-0.2-0.4c-1.7-2.8-3.7-4-6.8-4c-3.4,0-7.1,2.3-7.1,5.9c0,2.5,2,4.5,6,6l3.2,1.3
	c5.7,2.2,11.5,5.7,11.5,14.1S282.2,50.1,273.7,50.1z M260.3,37.3c1.1,7,6.6,11.8,13.4,11.8c8,0,14-5.8,14-13.6s-5.5-11-10.9-13.2
	l-3.2-1.3c-1.6-0.6-6.6-2.5-6.6-6.9s4.2-6.9,8.1-6.9c3-0.1,5.9,1.4,7.4,4.1l3.6-2.2c-2.3-3.9-6.5-6.3-11-6.2
	c-6.2,0-12.8,3.9-12.8,11.2c0,6.1,4.6,8.9,9.5,11l3.1,1.3c3.9,1.6,8.1,3.8,8.1,9c0.2,5-3.7,9.1-8.7,9.3c-0.1,0-0.1,0-0.2,0
	c-2.5,0-5-1-6.8-2.7c-1.5-1.5-2.4-3.6-2.5-5.7L260.3,37.3z"/>
<path class="st0" d="M331.2,3.4h7.4l-20.3,20.3l20.7,24.9h-7.6l-17-21.1l-2.3,2.2v18.9h-5.6V3.4h5.6V23L331.2,3.4z"/>
<path class="st0" d="M340,49.2h-9l-16.8-20.8l-1.7,1.7v19.2h-6.6V2.9h6.6v18.9L331,2.9h8.8l-20.9,20.9L340,49.2z M331.5,48.2h6.3
	l-20.4-24.4l19.8-19.8h-6l-19.9,20.3V3.9h-4.6v44.2h4.6V29.5l2.8-2.7L331.5,48.2z"/>
<path class="st0" d="M359.8,48.7h-5.6V3.4h5.6V48.7z"/>
<path class="st0" d="M360.3,49.2h-6.6V2.9h6.6V49.2z M354.6,48.2h4.6V3.9h-4.6V48.2z"/>
<path class="st0" d="M379.7,1.2l34,35.6V3.4h5.6v47.1l-34-35.6v33.7h-5.6V1.2z"/>
<path class="st0" d="M419.8,51.8l-34-35.6v33h-6.6V0l34,35.6V2.9h6.6L419.8,51.8z M384.8,13.7l34,35.6V3.9h-4.6v34.2L380.2,2.5v45.7
	h4.6L384.8,13.7z"/>
<path class="st0" d="M433.7,42.2c-2.2,0-4,1.8-4,4s1.8,4,4,4s4-1.8,4-4S435.9,42.2,433.7,42.2z"/>
</svg>
